<svg xmlns="http://www.w3.org/2000/svg" xmlns:xlink="http://www.w3.org/1999/xlink" width="467" height="467" viewBox="0 0 467 467"><defs><linearGradient id="linear-gradient" x1="0.508" y1="0.519" x2="0.421" y2="0.077" gradientUnits="objectBoundingBox"><stop offset="0" stop-color="#fff"></stop><stop offset="1" stop-color="#bfbfbe"></stop></linearGradient><linearGradient id="linear-gradient-2" x1="0.481" y1="0.39" x2="0.516" y2="1.084" gradientUnits="objectBoundingBox"><stop offset="0" stop-color="#fff"></stop><stop offset="1" stop-color="#bababa"></stop></linearGradient></defs><g id="Grupo_1655" data-name="Grupo 1655" transform="translate(10227 12524)"><g id="Grupo_1654" data-name="Grupo 1654" transform="translate(-439 -22)"><g id="Grupo_1653" data-name="Grupo 1653" transform="translate(-9788 -12502)"><path id="Caminho_5354" data-name="Caminho 5354" d="M233.5,0C362.458,0,467,104.542,467,233.5S362.458,467,233.5,467,0,362.458,0,233.5,104.542,0,233.5,0Z" transform="translate(0 0)" fill="#003383"></path><g id="Grupo_1101" data-name="Grupo 1101" transform="translate(53.545 85.102)"><path id="Caminho_70" data-name="Caminho 70" d="M895.284,576.1s-21.374-28.45-97.42-37.113a202.679,202.679,0,0,0-30.815-1.705l.033-.051a26.432,26.432,0,0,0-9.243-37.329c-.2-.114-.405-.228-.606-.339a26.6,26.6,0,0,0-35.348,8.817A283.845,283.845,0,0,0,702.236,544.3c-.189.036-.372.066-.561.1-81.056,14.848-149.318,71.039-149.721,107.152s48.971,39.11,48.971,39.11c.177-31.389,15.37-73.059,84.049-99.014-16.433,58.884-15.244,115.369-10.879,148.168.036.291.108.561.153.849,1.69,11.921,11.2,61.219,52.3,55.128,0,0,58.385-11.837,124.993-80.054C851.546,715.737,939.023,623.85,895.284,576.1Zm-36.915,27.688s-15.2,59.052-102.523,124.831c-3.594,2.578-36.687,25.208-36.9-15.592-.357-69.345,12.629-111.211,26.829-139.9,87.393-21.545,109.041-1.879,109.041-1.879h0C862.647,577.554,862.683,590.63,858.369,603.785Z" transform="translate(-551.952 -496.173)" fill="#fff"></path><path id="Caminho_71" data-name="Caminho 71" d="M641.1,603.562c4.7-36.429,13.83-62.168,23.523-81.755a344.236,344.236,0,0,0-60.8,18.522,371.051,371.051,0,0,0-11.332,59.463c3.7.961,7.568,1.807,10,2.192C606.07,602.55,626.4,603.174,641.1,603.562Z" transform="translate(-470.799 -444.856)" fill="url(#linear-gradient)"></path><path id="Caminho_72" data-name="Caminho 72" d="M666.827,537.279l.033-.051a26.43,26.43,0,0,0-9.246-37.329c-.2-.114-.4-.228-.6-.339a26.6,26.6,0,0,0-35.348,8.817A283.878,283.878,0,0,0,602.014,544.3S634.973,538.477,666.827,537.279Z" transform="translate(-451.73 -496.173)" fill="url(#linear-gradient-2)"></path></g></g></g></g></svg>